<svg width="25" height="22" viewBox="0 0 25 22" fill="#706F6F" xmlns="http://www.w3.org/2000/svg">
<path d="M16.9951 20.964C17.5107 21.4619 18.3287 21.4619 18.8443 20.964L23.7342 16.252C23.8664 16.1321 23.9731 15.9869 24.0482 15.8249C24.1232 15.663 24.165 15.4877 24.171 15.3093C24.177 15.1309 24.1472 14.9531 24.0833 14.7865C24.0193 14.6199 23.9226 14.4678 23.7988 14.3392C23.675 14.2107 23.5266 14.1083 23.3625 14.0381C23.1984 13.9679 23.0219 13.9314 22.8435 13.9307C22.665 13.93 22.4882 13.9651 22.3235 14.034C22.1589 14.1028 22.0097 14.2041 21.8849 14.3316L19.2533 16.8672V1.33359C19.2533 0.9799 19.1128 0.640696 18.8627 0.390599C18.6126 0.140503 18.2734 0 17.9197 0C17.566 0 17.2268 0.140503 16.9767 0.390599C16.7266 0.640696 16.5861 0.9799 16.5861 1.33359V16.8672L13.9545 14.3316C13.8297 14.2041 13.6805 14.1028 13.5159 14.034C13.3512 13.9651 13.1744 13.93 12.996 13.9307C12.8175 13.9314 12.641 13.9679 12.4769 14.0381C12.3128 14.1083 12.1644 14.2107 12.0406 14.3392C11.9168 14.4678 11.8201 14.6199 11.7562 14.7865C11.6922 14.9531 11.6624 15.1309 11.6684 15.3093C11.6744 15.4877 11.7162 15.663 11.7912 15.8249C11.8663 15.9869 11.9731 16.1321 12.1053 16.252L16.9951 20.964ZM7.30433 0.391186C7.05428 0.141449 6.71533 0.00117346 6.36192 0.00117346C6.00852 0.00117346 5.66957 0.141449 5.41952 0.391186L0.529689 5.28102C0.294124 5.53382 0.16588 5.86819 0.171976 6.21368C0.178072 6.55917 0.318031 6.88881 0.562368 7.13315C0.806705 7.37748 1.13634 7.51744 1.48183 7.52354C1.82732 7.52963 2.16169 7.40139 2.4145 7.16582L5.02833 4.55199V20.0039C5.02833 20.3575 5.16884 20.6967 5.41893 20.9468C5.66903 21.1969 6.00823 21.3374 6.36192 21.3374C6.71561 21.3374 7.05482 21.1969 7.30491 20.9468C7.55501 20.6967 7.69551 20.3575 7.69551 20.0039V4.55199L10.3094 7.16582C10.5622 7.40139 10.8965 7.52963 11.242 7.52354C11.5875 7.51744 11.9171 7.37748 12.1615 7.13315C12.4058 6.88881 12.5458 6.55917 12.5519 6.21368C12.558 5.86819 12.4297 5.53382 12.1942 5.28102L7.30433 0.391186Z" />
</svg>
