<svg width="24" height="24" viewBox="0 0 24 24" fill="none" xmlns="http://www.w3.org/2000/svg">
<path d="M1.6875 10.125C1.43886 10.125 1.2004 10.0262 1.02459 9.8504C0.848772 9.67458 0.75 9.43613 0.75 9.18749V1.68936C0.75 1.44072 0.848772 1.20226 1.02459 1.02645C1.2004 0.850634 1.43886 0.751862 1.6875 0.751862H9.1875C9.43614 0.751862 9.6746 0.850634 9.85041 1.02645C10.0262 1.20226 10.125 1.44072 10.125 1.68936V9.18749C10.125 9.43613 10.0262 9.67458 9.85041 9.8504C9.6746 10.0262 9.43614 10.125 9.1875 10.125H1.6875ZM14.8125 10.125C14.5639 10.125 14.3254 10.0262 14.1496 9.8504C13.9738 9.67458 13.875 9.43613 13.875 9.18749V1.68936C13.875 1.44072 13.9738 1.20226 14.1496 1.02645C14.3254 0.850634 14.5639 0.751862 14.8125 0.751862H22.3106C22.5593 0.751862 22.7977 0.850634 22.9735 1.02645C23.1494 1.20226 23.2481 1.44072 23.2481 1.68936V9.18749C23.2481 9.43613 23.1494 9.67458 22.9735 9.8504C22.7977 10.0262 22.5593 10.125 22.3106 10.125H14.8125ZM1.6875 23.25C1.43886 23.25 1.2004 23.1512 1.02459 22.9754C0.848772 22.7996 0.75 22.5611 0.75 22.3125V14.8125C0.75 14.5638 0.848772 14.3254 1.02459 14.1496C1.2004 13.9738 1.43886 13.875 1.6875 13.875H9.1875C9.43614 13.875 9.6746 13.9738 9.85041 14.1496C10.0262 14.3254 10.125 14.5638 10.125 14.8125V22.3125C10.125 22.5611 10.0262 22.7996 9.85041 22.9754C9.6746 23.1512 9.43614 23.25 9.1875 23.25H1.6875ZM14.8125 23.25C14.5639 23.25 14.3254 23.1512 14.1496 22.9754C13.9738 22.7996 13.875 22.5611 13.875 22.3125V14.8125C13.875 14.5638 13.9738 14.3254 14.1496 14.1496C14.3254 13.9738 14.5639 13.875 14.8125 13.875H22.3106C22.5593 13.875 22.7977 13.9738 22.9735 14.1496C23.1494 14.3254 23.2481 14.5638 23.2481 14.8125V22.3125C23.2481 22.5611 23.1494 22.7996 22.9735 22.9754C22.7977 23.1512 22.5593 23.25 22.3106 23.25H14.8125Z" fill="#706F6F"/>
</svg>
